<svg width="50.000000" height="49.000000" viewBox="0 0 50 49" fill="none" xmlns="http://www.w3.org/2000/svg" xmlns:xlink="http://www.w3.org/1999/xlink">
	<desc>
			Created with Pixso.
	</desc>
	<defs/>
	<path id="Shape" d="M50 24.5C50 38.03 38.8 49 25 49C11.19 49 0 38.03 0 24.5C0 10.96 11.19 0 25 0C38.8 0 50 10.96 50 24.5ZM16.74 22.25C14.23 23.32 11.66 24.42 9.31 25.69C8.08 26.58 9.71 27.2 11.24 27.78C11.49 27.88 11.73 27.97 11.95 28.06C12.14 28.12 12.33 28.18 12.53 28.24C14.23 28.77 16.13 29.36 17.79 28.47C20.5 26.94 23.07 25.17 25.63 23.41C26.47 22.83 27.31 22.25 28.15 21.68C28.19 21.65 28.24 21.62 28.29 21.59C29 21.14 30.62 20.11 30.02 21.52C28.61 23.04 27.09 24.38 25.57 25.73C24.54 26.64 23.51 27.56 22.51 28.53C21.63 29.23 20.72 30.63 21.7 31.61C23.96 33.16 26.26 34.67 28.55 36.18C29.3 36.67 30.04 37.17 30.79 37.66C32.05 38.65 34.02 37.85 34.3 36.3C34.43 35.59 34.55 34.88 34.67 34.17C35.36 30.25 36.04 26.32 36.65 22.39C36.73 21.77 36.82 21.15 36.92 20.53C37.14 19.03 37.37 17.54 37.44 16.03C37.26 14.53 35.4 14.86 34.37 15.2C29.05 17.18 23.78 19.31 18.54 21.48C17.94 21.73 17.34 21.99 16.74 22.25Z" fill="#E4E4E4" fill-opacity="1.000000" fill-rule="evenodd"/>
</svg>
